<svg width="1000" height="600" viewBox="0 0 1000 600" xmlns="http://www.w3.org/2000/svg">
  <defs>
    <linearGradient id="bgGradient" x1="0%" y1="0%" x2="100%" y2="100%">
      <stop offset="0%" style="stop-color:#f8fafc;stop-opacity:1" />
      <stop offset="100%" style="stop-color:#e2e8f0;stop-opacity:1" />
    </linearGradient>
    <filter id="cardShadow" x="-10%" y="-10%" width="120%" height="120%">
      <feDropShadow dx="0" dy="2" stdDeviation="4" flood-color="#000000" flood-opacity="0.1"/>
    </filter>
    <filter id="glow" x="-50%" y="-50%" width="200%" height="200%">
      <feGaussianBlur stdDeviation="3" result="coloredBlur"/>
      <feMerge>
        <feMergeNode in="coloredBlur"/>
        <feMergeNode in="SourceGraphic"/>
      </feMerge>
    </filter>
  </defs>

  <!-- Background -->
  <rect width="1000" height="600" fill="url(#bgGradient)"/>

  <!-- Title -->
  <text x="500" y="40" font-family="-apple-system, BlinkMacSystemFont, 'Segoe UI', Roboto, sans-serif" font-size="28" font-weight="700" fill="#1f2937" text-anchor="middle">GitGuard Feature Showcase</text>
  <text x="500" y="65" font-family="-apple-system, BlinkMacSystemFont, 'Segoe UI', Roboto, sans-serif" font-size="16" fill="#6b7280" text-anchor="middle">Autonomous Repository Governance with Full Transparency</text>

  <!-- Feature 1: Policy Engine -->
  <g transform="translate(50, 100)">
    <rect x="0" y="0" width="280" height="200" rx="12" fill="#ffffff" filter="url(#cardShadow)"/>

    <!-- Icon -->
    <g transform="translate(20, 20)">
      <rect x="0" y="0" width="40" height="40" rx="8" fill="#3b82f6"/>
      <path d="M20 8L32 14L20 20L8 14Z" fill="#ffffff"/>
      <path d="M8 18L20 24L32 18" fill="#ffffff" opacity="0.7"/>
      <path d="M8 22L20 28L32 22" fill="#ffffff" opacity="0.5"/>
    </g>

    <text x="70" y="35" font-family="-apple-system, BlinkMacSystemFont, 'Segoe UI', Roboto, sans-serif" font-size="18" font-weight="600" fill="#1f2937">Policy Engine</text>
    <text x="70" y="55" font-family="-apple-system, BlinkMacSystemFont, 'Segoe UI', Roboto, sans-serif" font-size="14" fill="#6b7280">OPA/Rego Rules</text>

    <!-- Features -->
    <g transform="translate(20, 80)">
      <text x="0" y="15" font-family="-apple-system, BlinkMacSystemFont, 'Segoe UI', Roboto, sans-serif" font-size="13" fill="#374151">✓ Release window enforcement</text>
      <text x="0" y="35" font-family="-apple-system, BlinkMacSystemFont, 'Segoe UI', Roboto, sans-serif" font-size="13" fill="#374151">✓ Risk-based approval gates</text>
      <text x="0" y="55" font-family="-apple-system, BlinkMacSystemFont, 'Segoe UI', Roboto, sans-serif" font-size="13" fill="#374151">✓ Security policy validation</text>
      <text x="0" y="75" font-family="-apple-system, BlinkMacSystemFont, 'Segoe UI', Roboto, sans-serif" font-size="13" fill="#374151">✓ Full decision transparency</text>
    </g>

    <!-- Status indicator -->
    <circle cx="250" cy="30" r="6" fill="#10b981" filter="url(#glow)"/>
    <text x="250" y="50" font-family="-apple-system, BlinkMacSystemFont, 'Segoe UI', Roboto, sans-serif" font-size="10" fill="#10b981" text-anchor="middle">ACTIVE</text>
  </g>

  <!-- Feature 2: Org-Brain Intelligence -->
  <g transform="translate(360, 100)">
    <rect x="0" y="0" width="280" height="200" rx="12" fill="#ffffff" filter="url(#cardShadow)"/>

    <!-- Icon -->
    <g transform="translate(20, 20)">
      <rect x="0" y="0" width="40" height="40" rx="8" fill="#8b5cf6"/>
      <circle cx="20" cy="15" r="3" fill="#ffffff"/>
      <circle cx="12" cy="25" r="2" fill="#ffffff" opacity="0.8"/>
      <circle cx="28" cy="25" r="2" fill="#ffffff" opacity="0.8"/>
      <circle cx="20" cy="32" r="2" fill="#ffffff" opacity="0.6"/>
      <line x1="20" y1="18" x2="12" y2="23" stroke="#ffffff" stroke-width="1" opacity="0.8"/>
      <line x1="20" y1="18" x2="28" y2="23" stroke="#ffffff" stroke-width="1" opacity="0.8"/>
      <line x1="12" y1="27" x2="20" y2="30" stroke="#ffffff" stroke-width="1" opacity="0.6"/>
      <line x1="28" y1="27" x2="20" y2="30" stroke="#ffffff" stroke-width="1" opacity="0.6"/>
    </g>

    <text x="70" y="35" font-family="-apple-system, BlinkMacSystemFont, 'Segoe UI', Roboto, sans-serif" font-size="18" font-weight="600" fill="#1f2937">Org-Brain Intelligence</text>
    <text x="70" y="55" font-family="-apple-system, BlinkMacSystemFont, 'Segoe UI', Roboto, sans-serif" font-size="14" fill="#6b7280">Dynamic Ownership</text>

    <!-- Features -->
    <g transform="translate(20, 80)">
      <text x="0" y="15" font-family="-apple-system, BlinkMacSystemFont, 'Segoe UI', Roboto, sans-serif" font-size="13" fill="#374151">✓ Real-time team mapping</text>
      <text x="0" y="35" font-family="-apple-system, BlinkMacSystemFont, 'Segoe UI', Roboto, sans-serif" font-size="13" fill="#374151">✓ Expertise-based routing</text>
      <text x="0" y="55" font-family="-apple-system, BlinkMacSystemFont, 'Segoe UI', Roboto, sans-serif" font-size="13" fill="#374151">✓ Relationship graphs</text>
      <text x="0" y="75" font-family="-apple-system, BlinkMacSystemFont, 'Segoe UI', Roboto, sans-serif" font-size="13" fill="#374151">✓ Code ownership tracking</text>
    </g>

    <!-- Status indicator -->
    <circle cx="250" cy="30" r="6" fill="#10b981" filter="url(#glow)"/>
    <text x="250" y="50" font-family="-apple-system, BlinkMacSystemFont, 'Segoe UI', Roboto, sans-serif" font-size="10" fill="#10b981" text-anchor="middle">SYNCED</text>
  </g>

  <!-- Feature 3: Temporal Workflows -->
  <g transform="translate(670, 100)">
    <rect x="0" y="0" width="280" height="200" rx="12" fill="#ffffff" filter="url(#cardShadow)"/>

    <!-- Icon -->
    <g transform="translate(20, 20)">
      <rect x="0" y="0" width="40" height="40" rx="8" fill="#f59e0b"/>
      <path d="M8 12L16 8L24 12L32 8L32 32L24 28L16 32L8 28Z" fill="#ffffff" opacity="0.9"/>
      <circle cx="20" cy="20" r="2" fill="#ffffff"/>
    </g>

    <text x="70" y="35" font-family="-apple-system, BlinkMacSystemFont, 'Segoe UI', Roboto, sans-serif" font-size="18" font-weight="600" fill="#1f2937">Temporal Workflows</text>
    <text x="70" y="55" font-family="-apple-system, BlinkMacSystemFont, 'Segoe UI', Roboto, sans-serif" font-size="14" fill="#6b7280">Orchestration Engine</text>

    <!-- Features -->
    <g transform="translate(20, 80)">
      <text x="0" y="15" font-family="-apple-system, BlinkMacSystemFont, 'Segoe UI', Roboto, sans-serif" font-size="13" fill="#374151">✓ Complex approval flows</text>
      <text x="0" y="35" font-family="-apple-system, BlinkMacSystemFont, 'Segoe UI', Roboto, sans-serif" font-size="13" fill="#374151">✓ Time-based escalation</text>
      <text x="0" y="55" font-family="-apple-system, BlinkMacSystemFont, 'Segoe UI', Roboto, sans-serif" font-size="13" fill="#374151">✓ Workflow reliability</text>
      <text x="0" y="75" font-family="-apple-system, BlinkMacSystemFont, 'Segoe UI', Roboto, sans-serif" font-size="13" fill="#374151">✓ Event-driven automation</text>
    </g>

    <!-- Status indicator -->
    <circle cx="250" cy="30" r="6" fill="#10b981" filter="url(#glow)"/>
    <text x="250" y="50" font-family="-apple-system, BlinkMacSystemFont, 'Segoe UI', Roboto, sans-serif" font-size="10" fill="#10b981" text-anchor="middle">RUNNING</text>
  </g>

  <!-- Feature 4: Documentation Portal -->
  <g transform="translate(50, 330)">
    <rect x="0" y="0" width="280" height="200" rx="12" fill="#ffffff" filter="url(#cardShadow)"/>

    <!-- Icon -->
    <g transform="translate(20, 20)">
      <rect x="0" y="0" width="40" height="40" rx="8" fill="#10b981"/>
      <rect x="8" y="8" width="24" height="24" rx="2" fill="#ffffff"/>
      <line x1="12" y1="16" x2="28" y2="16" stroke="#10b981" stroke-width="1"/>
      <line x1="12" y1="20" x2="24" y2="20" stroke="#10b981" stroke-width="1"/>
      <line x1="12" y1="24" x2="26" y2="24" stroke="#10b981" stroke-width="1"/>
    </g>

    <text x="70" y="35" font-family="-apple-system, BlinkMacSystemFont, 'Segoe UI', Roboto, sans-serif" font-size="18" font-weight="600" fill="#1f2937">Documentation Portal</text>
    <text x="70" y="55" font-family="-apple-system, BlinkMacSystemFont, 'Segoe UI', Roboto, sans-serif" font-size="14" fill="#6b7280">Live Policy Docs</text>

    <!-- Features -->
    <g transform="translate(20, 80)">
      <text x="0" y="15" font-family="-apple-system, BlinkMacSystemFont, 'Segoe UI', Roboto, sans-serif" font-size="13" fill="#374151">✓ Interactive policy explorer</text>
      <text x="0" y="35" font-family="-apple-system, BlinkMacSystemFont, 'Segoe UI', Roboto, sans-serif" font-size="13" fill="#374151">✓ Real-time PR digests</text>
      <text x="0" y="55" font-family="-apple-system, BlinkMacSystemFont, 'Segoe UI', Roboto, sans-serif" font-size="13" fill="#374151">✓ API documentation</text>
      <text x="0" y="75" font-family="-apple-system, BlinkMacSystemFont, 'Segoe UI', Roboto, sans-serif" font-size="13" fill="#374151">✓ GitHub Pages integration</text>
    </g>

    <!-- Status indicator -->
    <circle cx="250" cy="30" r="6" fill="#10b981" filter="url(#glow)"/>
    <text x="250" y="50" font-family="-apple-system, BlinkMacSystemFont, 'Segoe UI', Roboto, sans-serif" font-size="10" fill="#10b981" text-anchor="middle">LIVE</text>
  </g>

  <!-- Feature 5: Monitoring & Observability -->
  <g transform="translate(360, 330)">
    <rect x="0" y="0" width="280" height="200" rx="12" fill="#ffffff" filter="url(#cardShadow)"/>

    <!-- Icon -->
    <g transform="translate(20, 20)">
      <rect x="0" y="0" width="40" height="40" rx="8" fill="#ef4444"/>
      <path d="M8 28L12 20L16 24L20 16L24 20L28 12L32 16" stroke="#ffffff" stroke-width="2" fill="none"/>
      <circle cx="12" cy="20" r="2" fill="#ffffff"/>
      <circle cx="20" cy="16" r="2" fill="#ffffff"/>
      <circle cx="28" cy="12" r="2" fill="#ffffff"/>
    </g>

    <text x="70" y="35" font-family="-apple-system, BlinkMacSystemFont, 'Segoe UI', Roboto, sans-serif" font-size="18" font-weight="600" fill="#1f2937">Monitoring & SLOs</text>
    <text x="70" y="55" font-family="-apple-system, BlinkMacSystemFont, 'Segoe UI', Roboto, sans-serif" font-size="14" fill="#6b7280">Prometheus + Grafana</text>

    <!-- Features -->
    <g transform="translate(20, 80)">
      <text x="0" y="15" font-family="-apple-system, BlinkMacSystemFont, 'Segoe UI', Roboto, sans-serif" font-size="13" fill="#374151">✓ P99 performance tracking</text>
      <text x="0" y="35" font-family="-apple-system, BlinkMacSystemFont, 'Segoe UI', Roboto, sans-serif" font-size="13" fill="#374151">✓ Merge rate analytics</text>
      <text x="0" y="55" font-family="-apple-system, BlinkMacSystemFont, 'Segoe UI', Roboto, sans-serif" font-size="13" fill="#374151">✓ Policy decision metrics</text>
      <text x="0" y="75" font-family="-apple-system, BlinkMacSystemFont, 'Segoe UI', Roboto, sans-serif" font-size="13" fill="#374151">✓ Alert management</text>
    </g>

    <!-- Status indicator -->
    <circle cx="250" cy="30" r="6" fill="#10b981" filter="url(#glow)"/>
    <text x="250" y="50" font-family="-apple-system, BlinkMacSystemFont, 'Segoe UI', Roboto, sans-serif" font-size="10" fill="#10b981" text-anchor="middle">HEALTHY</text>
  </g>

  <!-- Feature 6: MCP Integration -->
  <g transform="translate(670, 330)">
    <rect x="0" y="0" width="280" height="200" rx="12" fill="#ffffff" filter="url(#cardShadow)"/>

    <!-- Icon -->
    <g transform="translate(20, 20)">
      <rect x="0" y="0" width="40" height="40" rx="8" fill="#6366f1"/>
      <path d="M12 12L20 8L28 12L28 20L20 24L12 20Z" fill="#ffffff" opacity="0.9"/>
      <circle cx="20" cy="16" r="3" fill="#ffffff"/>
      <path d="M16 28L20 32L24 28" stroke="#ffffff" stroke-width="2" fill="none"/>
    </g>

    <text x="70" y="35" font-family="-apple-system, BlinkMacSystemFont, 'Segoe UI', Roboto, sans-serif" font-size="18" font-weight="600" fill="#1f2937">MCP Integration</text>
    <text x="70" y="55" font-family="-apple-system, BlinkMacSystemFont, 'Segoe UI', Roboto, sans-serif" font-size="14" fill="#6b7280">Claude Desktop</text>

    <!-- Features -->
    <g transform="translate(20, 80)">
      <text x="0" y="15" font-family="-apple-system, BlinkMacSystemFont, 'Segoe UI', Roboto, sans-serif" font-size="13" fill="#374151">✓ Policy explanation AI</text>
      <text x="0" y="35" font-family="-apple-system, BlinkMacSystemFont, 'Segoe UI', Roboto, sans-serif" font-size="13" fill="#374151">✓ Interactive exploration</text>
      <text x="0" y="55" font-family="-apple-system, BlinkMacSystemFont, 'Segoe UI', Roboto, sans-serif" font-size="13" fill="#374151">✓ Developer experience</text>
      <text x="0" y="75" font-family="-apple-system, BlinkMacSystemFont, 'Segoe UI', Roboto, sans-serif" font-size="13" fill="#374151">✓ Seamless integration</text>
    </g>

    <!-- Status indicator -->
    <circle cx="250" cy="30" r="6" fill="#f59e0b" filter="url(#glow)"/>
    <text x="250" y="50" font-family="-apple-system, BlinkMacSystemFont, 'Segoe UI', Roboto, sans-serif" font-size="10" fill="#f59e0b" text-anchor="middle">OPTIONAL</text>
  </g>

  <!-- Connection lines -->
  <g stroke="#e5e7eb" stroke-width="2" fill="none" opacity="0.5">
    <path d="M330 200 L360 200"/>
    <path d="M640 200 L670 200"/>
    <path d="M190 300 L190 330"/>
    <path d="M500 300 L500 330"/>
    <path d="M810 300 L810 330"/>
  </g>

  <!-- Bottom banner -->
  <rect x="50" y="560" width="900" height="30" rx="15" fill="#1f2937"/>
  <text x="500" y="580" font-family="-apple-system, BlinkMacSystemFont, 'Segoe UI', Roboto, sans-serif" font-size="14" font-weight="600" fill="#ffffff" text-anchor="middle">🛡️ GitGuard - Your repositories, under guard</text>
</svg>
